<?xml version="1.0" encoding="UTF-8" standalone="no"?>
<!-- Created with Inkscape (http://www.inkscape.org/) -->

<svg
   xmlns:dc="http://purl.org/dc/elements/1.1/"
   xmlns:cc="http://creativecommons.org/ns#"
   xmlns:rdf="http://www.w3.org/1999/02/22-rdf-syntax-ns#"
   xmlns:svg="http://www.w3.org/2000/svg"
   xmlns="http://www.w3.org/2000/svg"
   xmlns:sodipodi="http://sodipodi.sourceforge.net/DTD/sodipodi-0.dtd"
   xmlns:inkscape="http://www.inkscape.org/namespaces/inkscape"
   width="210mm"
   height="297mm"
   viewBox="0 0 210 297"
   version="1.1"
   id="svg8"
   inkscape:version="0.92.2 (5c3e80d, 2017-08-06)"
   sodipodi:docname="icon-up-red.svg">
  <defs
     id="defs2" />
  <sodipodi:namedview
     id="base"
     pagecolor="#ffffff"
     bordercolor="#666666"
     borderopacity="1.0"
     inkscape:pageopacity="0.0"
     inkscape:pageshadow="2"
     inkscape:zoom="3.959798"
     inkscape:cx="-245.22598"
     inkscape:cy="112.71015"
     inkscape:document-units="mm"
     inkscape:current-layer="layer1"
     showgrid="false"
     inkscape:window-width="1920"
     inkscape:window-height="1017"
     inkscape:window-x="-8"
     inkscape:window-y="-8"
     inkscape:window-maximized="1" />
  <metadata
     id="metadata5">
    <rdf:RDF>
      <cc:Work
         rdf:about="">
        <dc:format>image/svg+xml</dc:format>
        <dc:type
           rdf:resource="http://purl.org/dc/dcmitype/StillImage" />
        <dc:title></dc:title>
      </cc:Work>
    </rdf:RDF>
  </metadata>
  <g
     inkscape:label="Layer 1"
     inkscape:groupmode="layer"
     id="layer1">
    <g
       id="g24"
       transform="matrix(0.26458333,0,0,0.26458333,-87.350298,225.5247)">
      <circle
         id="circle10"
         r="33"
         cy="33"
         cx="33"
         style="fill:#63a63e" />
      <path
         id="path12"
         d="m 49.641,21.066 a 1.003,1.003 0 0 0 -1.414,0 L 29.788,39.504 a 1.003,1.003 0 0 1 -1.414,0 l -8.14,-8.139 a 1.003,1.003 0 0 0 -1.414,0 L 15.285,34.9 a 1.003,1.003 0 0 0 0,1.414 l 13.089,13.09 a 1.003,1.003 0 0 0 1.414,0 l 3.536,-3.536 1.414,-1.414 18.438,-18.438 a 1.003,1.003 0 0 0 0,-1.414 z"
         inkscape:connector-curvature="0"
         style="fill:#ffffff" />
    </g>
    <path
       id="path26"
       d="m -187.73327,283.43354 1.96374,-1.96374 a 0.26537708,0.26537708 0 0 0 0,-0.37412 l -0.35957,-0.35956 a 0.26537708,0.26537708 0 0 0 -0.37412,0 l -1.96374,1.96373 -1.96373,-1.96373 a 0.26537708,0.26537708 0 0 0 -0.37412,0 l -0.35957,0.35956 a 0.26537708,0.26537708 0 0 0 0,0.37412 l 1.96373,1.96374 -1.96347,1.96374 a 0.26537708,0.26537708 0 0 0 0,0.37412 l 0.35957,0.35957 a 0.26537708,0.26537708 0 0 0 0.37412,0 l 1.96374,-1.96374 1.96374,1.96374 a 0.26537708,0.26537708 0 0 0 0.37412,0 l 0.35957,-0.35957 a 0.26537708,0.26537708 0 0 0 0,-0.37412 z"
       inkscape:connector-curvature="0"
       style="fill:#ee3643;stroke-width:0.26458332" />
    <g
       id="g41"
       transform="matrix(0.26458333,0,0,0.26458333,-131.20167,227.57609)"
       style="fill:#ffffff">
      <path
         id="path37"
         d="m 37.91,30.438 v 10.869 c 0,0 0.105,2.735 -2.825,2.735 -3.069,0 -3.125,-2.735 -3.125,-2.735 v -6.416 c 0,-0.24 -0.336,-1.909 -2.319,-1.909 -2.625,0 -2.67,1.877 -2.67,1.877 V 54.08 c 0,0 0.029,1.863 -2.464,1.863 C 22,55.943 22,53.96 22,53.96 V 40.016 c 0,0 0,-2.945 -3.805,-2.945 -4.054,0 -3.967,3.125 -3.967,3.125 v 3.728 c 0,0 -0.121,2.945 -4.688,2.945 -4.567,0 -4.628,-4.509 -4.628,-4.509 V 29.938 C 3.168,28.976 0,26.671 0,26.671 V 56.003 C 0,56.003 2.988,65 22,65 41.012,65 44,56.305 44,56.305 V 26.671 c -2.938,2.829 -6.09,3.767 -6.09,3.767 z"
         inkscape:connector-curvature="0" />
      <path
         id="path39"
         d="M 22,0 C 1.688,0 0,19.875 0,19.875 v 3.062 C 8.438,29.188 22,29 22,29 c 0,0 13.562,0.188 22,-6.062 V 19.876 C 44,19.875 42.312,0 22,0 Z m 0,25 C 10.25,25 7.688,22.625 7.688,22.625 13.938,19.75 22,19.875 22,19.875 c 0,0 8.062,-0.125 14.312,2.75 0,0 -2.562,2.375 -14.312,2.375 z m 0,-12.375 c -9.562,0 -17.688,2.938 -17.688,2.938 C 8.875,2.625 22,3.062 22,3.062 c 0,0 13.125,-0.438 17.688,12.5 0,0 -8.126,-2.937 -17.688,-2.937 z"
         inkscape:connector-curvature="0" />
    </g>
    <g
       id="g56"
       transform="matrix(0.26458333,0,0,0.26458333,-98.151645,198.39013)"
       style="fill:#ffffff">
      <path
         id="path54"
         d="m 5.039,58.949 c 0,0 0,2.051 1.868,2.051 h 27.02 c 0,0 2.001,-0.184 2.001,-1.984 V 47.942 H 5.039 Z M 73.875,8.016 H 60.387 C 59.766,5.729 58.316,4.125 56.625,4.125 h -7.542 v 12.75 h 7.542 c 1.69,0 3.141,-1.604 3.762,-3.891 h 13.488 c 0.575,0 1.042,-1.112 1.042,-2.484 0,-1.372 -0.467,-2.484 -1.042,-2.484 z M 2.103,0 C 0.167,0 0,2.041 0,2.041 v 15.812 c 0,2.936 2.903,3.002 2.903,3.002 h 9.007 c 1.935,0 1.601,1.334 1.601,1.334 0,0 -2.469,13.01 -2.735,15.211 -0.267,2.203 -1.868,3.604 -1.868,3.604 0,0 -2.135,1.201 -3.002,1.668 -0.867,0.467 -0.867,2.201 -0.867,2.201 h 30.889 v -0.734 c 0,-1.467 -6.472,-3.135 -9.073,-3.402 -2.602,-0.266 -2.068,-2.002 -2.068,-2.002 l 1.067,-7.805 h 3.002 l 1.134,-7.873 h -3.002 l 0.331,-2.737 8.609,-0.131 c 5.805,-0.601 10.008,-4.07 10.008,-4.07 V 4.109 C 41.333,0.84 33.993,0 33.993,0 Z M 36,4.938 v 0.031 c 0,0.55 -0.45,1 -1,1 H 5.031 c -0.55,0 -1,-0.45 -1,-1 V 4.938 c 0,-0.55 0.45,-1 1,-1 H 35 c 0.55,0 1,0.45 1,1 z"
         inkscape:connector-curvature="0" />
    </g>
    <g
       id="g72"
       transform="matrix(0.26458333,0,0,0.26458333,-146.66278,198.25784)"
       style="fill:#ffffff">
      <path
         id="path68"
         d="M 16.125,29.749 C 7.22,29.749 0,36.968 0,45.875 0,54.78 7.22,62 16.125,62 25.03,62 32.25,54.78 32.25,45.875 32.251,36.968 25.031,29.749 16.125,29.749 Z m 0,23.433 a 7.306,7.306 0 0 1 -7.307,-7.307 7.307,7.307 0 1 1 14.614,0 7.306,7.306 0 0 1 -7.307,7.307 z m 44.729,-7.308 a 8.062,8.062 0 0 0 -8.062,8.062 8.062,8.062 0 1 0 16.124,0 8.06,8.06 0 0 0 -8.062,-8.062 z m 0,13.126 A 5.0630001,5.0630001 0 1 1 60.856,48.874 5.0630001,5.0630001 0 0 1 60.854,59 Z"
         inkscape:connector-curvature="0" />
      <path
         id="path70"
         d="m 77.898,49.727 c 0,0 -2.023,-15.102 -2.461,-18.414 -0.547,-4.141 -3.625,-4.688 -3.625,-4.688 L 66,25.946 V 14 h -3 v 5.833 h -4 v 5.295 L 47.188,23.75 c 0,0 -9.75,-20.062 -10.562,-21.875 C 35.814,0.062 33.5,0 33.5,0 33.5,0 11.125,2.375 8.75,3 6.375,3.625 5.312,6.167 5.312,6.167 3.004,12.537 3.001,23.463 3.046,26.422 a 23.328,23.328 0 0 1 13.079,-3.986 c 12.944,0 23.438,10.493 23.438,23.439 0,2.438 -0.373,4.789 -1.064,7 h 10.164 c 0.39,-6.402 5.69,-11.479 12.191,-11.479 6.501,0 11.802,5.077 12.191,11.479 H 75 c 3.641,0 2.898,-3.148 2.898,-3.148 z M 23.083,19.833 H 16.125 V 6.167 h 6.958 z m 10,0 H 26.125 V 6.167 h 6.958 z M 53.016,36 H 49 v -7 h 4.016 z m 7,0 H 56 v -7 h 4.016 z m 7,0 H 63 v -7 h 4.016 z"
         inkscape:connector-curvature="0" />
    </g>
    <g
       id="g93"
       transform="matrix(0.26458333,0,0,0.26458333,-146.15983,224.13582)"
       style="fill:#ffffff">
      <path
         id="path85"
         d="M 58.34,20.545 A 2.997,2.997 0 0 0 55.944,19.35 H 17.274 L 14.799,11.965 H 3.058 a 3,3 0 1 0 0,6 h 7.424 l 13.5,40.285 h 25.159 a 3,3 0 1 0 0,-6 H 28.299 l -1.726,-5.149 h 23.12 a 3.001,3.001 0 0 0 2.884,-2.172 l 6.25,-21.75 A 3.005,3.005 0 0 0 58.34,20.545 Z m -7.781,9.681 h -4.81 V 25.35 h 6.211 z m -17.617,0 V 25.35 h 6.807 v 4.875 h -6.807 z m 6.807,6 v 4.875 H 32.942 V 36.226 Z M 26.942,25.35 v 4.875 H 20.919 L 19.285,25.35 Z m -4.013,10.876 h 4.013 v 4.875 h -2.379 z m 22.82,4.875 v -4.875 h 3.086 l -1.401,4.875 z"
         inkscape:connector-curvature="0" />
      <circle
         id="circle87"
         r="5.7810001"
         cy="66.094002"
         cx="27.406" />
      <circle
         id="circle89"
         r="5.7810001"
         cy="66.094002"
         cx="44.844002" />
      <path
         id="path91"
         d="m 29.335,9.699 7.547,5.492 A 1.986,1.986 0 0 0 39.7,14.697 c 0.646,-0.936 0.43,-2.232 -0.48,-2.895 L 36.847,10.076 46.283,4.986 50.911,17 h 4.347 L 49.214,1.309 A 2.051,2.051 0 0 0 48.037,0.126 1.97,1.97 0 0 0 46.394,0.235 L 33.146,7.382 30.124,5.183 a 1.986,1.986 0 0 0 -2.742,0.39 l -8.481,10.798 a 2.176,2.176 0 0 0 -0.405,0.628 h 5.106 z"
         inkscape:connector-curvature="0" />
    </g>
    <g
       id="g114"
       transform="matrix(0.26458333,0,0,0.26458333,-54.192758,304.23155)"
       style="fill:#ffffff">
      <circle
         id="circle108"
         r="7.5"
         cy="55.5"
         cx="25.983" />
      <circle
         id="circle110"
         r="7.5"
         cy="55.5"
         cx="59.981998" />
      <path
         id="path112"
         d="M 64,0 H 11.062 c -3.188,0 -3,3.125 -3,3.125 V 8 H 3.469 a 3.469,3.469 0 1 0 0,6.938 l 28.085,1.84 0.196,0.043 c -0.761,3.197 -8.938,3.805 -8.938,3.805 l -8.31,0.428 H 5.446 a 3.375,3.375 0 1 0 0,6.75 l 23.656,1.254 c -0.807,3.153 -6.29,3.756 -6.29,3.756 l -14.751,0.76 v 15.615 c 0,3.188 2.564,3.812 2.564,3.812 h 2.099 c 1.173,-6.261 6.659,-11 13.259,-11 6.6,0 12.085,4.739 13.259,11 h 7.404 c 1.174,-6.261 6.66,-11 13.26,-11 6.601,0 12.086,4.739 13.26,11 h 1.709 C 77.812,53 78,48.938 78,48.938 V 33.688 C 78,14.812 64,0 64,0 Z M 52,23.938 v -15 h 10.062 l 5.75,15 z"
         inkscape:connector-curvature="0" />
    </g>
    <path
       id="path128"
       d="m -89.595901,294.16137 c 0,0.14553 -0.09737,0.19606 -0.216429,0.11272 l -1.418961,-0.99616 c -0.119062,-0.0833 -0.31406,-0.0833 -0.433123,0 l -1.419225,0.99616 c -0.119062,0.0833 -0.216429,0.0328 -0.216429,-0.11272 v -3.70416 c 0,-0.14552 0.119063,-0.26459 0.264583,-0.26459 h 3.175 c 0.145521,0 0.264584,0.11907 0.264584,0.26459 z"
       inkscape:connector-curvature="0"
       style="fill:#ffffff;stroke-width:0.26458332" />
    <g
       id="g156"
       transform="matrix(0.26458333,0,0,0.26458333,-69.912642,286.52729)">
      <circle
         id="circle139"
         r="1.5"
         cy="13.5"
         cx="4.5"
         style="fill:#ffffff" />
      <circle
         id="circle141"
         r="1.5"
         cy="13.5"
         cx="12.5"
         style="fill:#ffffff" />
      <path
         id="path143"
         d="M 15,2 H 4.07 L 3.648,0 H 0 v 2 h 2.031 l 1.985,9 H 15 V 9 H 9.441 L 15,6.951 Z"
         inkscape:connector-curvature="0"
         style="fill:#ffffff" />
    </g>
    <path
       id="path158"
       d="m -50.43358,275.31669 -1.455208,-2.64583 h 2.910417"
       inkscape:connector-curvature="0"
       style="fill:#231f20;stroke-width:0.26458332" />
    <path
       id="path169"
       d="m 3.1493103,326.21547 v -1.05833 h -1.058333 a 1.0583333,1.0583333 0 0 0 -1.058333,1.05833 v 1.05833 h -1.05833401 v 1.05834 H 1.0326443 v 2.64583 h 1.058333 v -2.64583 h 1.058333 v -1.05834 h -1.058333 v -1.05833 z"
       inkscape:connector-curvature="0"
       style="fill:#ffffff;stroke-width:0.26458332" />
    <g
       id="g184"
       transform="matrix(0.26458333,0,0,0.26458333,-32.090403,320.60012)"
       style="fill:#c1c6ce">
      <path
         id="path180"
         d="m 3,8 v 4 H 7 V 8 h 2 v 4 h 4 V 8 L 8,3.516 Z"
         inkscape:connector-curvature="0" />
      <path
         id="path182"
         d="M 14.831,6.365 13,4.751 V 0 H 11 V 2.987 L 8.332,0.635 C 8.312,0.618 8.289,0.612 8.268,0.598 A 0.465,0.465 0 0 0 8.188,0.551 0.551,0.551 0 0 0 8.093,0.527 C 8.062,0.521 8.032,0.515 8,0.515 7.969,0.515 7.939,0.521 7.908,0.527 A 0.46,0.46 0 0 0 7.813,0.552 C 7.785,0.563 7.76,0.581 7.733,0.598 7.712,0.612 7.688,0.618 7.669,0.635 L 1.171,6.365 A 0.501,0.501 0 0 0 1.501,7.24 0.497,0.497 0 0 0 1.832,7.115 L 8,1.677 14.169,7.115 a 0.501,0.501 0 0 0 0.662,-0.75 z"
         inkscape:connector-curvature="0" />
    </g>
    <path
       id="path197"
       d="m -58.994884,312.4605 h -3.96875 c -0.436562,0 -0.79375,0.35718 -0.79375,0.79375 v 3.96875 c 0,0.43656 0.357188,0.79375 0.79375,0.79375 h 3.96875 c 0.436563,0 0.79375,-0.35719 0.79375,-0.79375 v -3.96875 c 0,-0.43657 -0.357187,-0.79375 -0.79375,-0.79375 z m -1.984375,1.85208 c 0.510646,0 0.926042,0.4154 0.926042,0.92604 0,0.51065 -0.415396,0.92604 -0.926042,0.92604 -0.510645,0 -0.926041,-0.41539 -0.926041,-0.92604 0,-0.51064 0.415396,-0.92604 0.926041,-0.92604 z m 1.984375,2.91042 h -3.96875 v -2.38125 h 0.312473 a 1.72085,1.72085 0 0 0 -0.04789,0.39687 1.719792,1.719792 0 1 0 3.439584,0 1.7065625,1.7065625 0 0 0 -0.04789,-0.39687 h 0.312473 z m 0,-2.91042 h -1.058333 v -1.05833 h 1.058333 z"
       inkscape:connector-curvature="0"
       style="fill:#ffffff;stroke-width:0.26458332" />
    <path
       id="path208"
       d="m -49.546431,262.6376 0.552715,0.55536 -4.706673,4.73154 4.722018,4.74636 -0.552979,0.55537 -5.274469,-5.30173 z"
       inkscape:connector-curvature="0"
       style="fill:#ffffff;stroke-width:0.26458332" />
    <g
       id="g233"
       transform="matrix(0.26458333,0,0,0.26458333,-49.194522,286.2627)">
      <path
         id="path219"
         d="M 14.875,8.5 6,0 V 6 H 0 v 5 h 6 v 6 z"
         inkscape:connector-curvature="0"
         style="fill:#c5c5c5" />
      <path
         id="path221"
         d="M 16.986,15.01 H 11.959 V 17 h 5.027 c 2.178,0 3.004,-1.81 3.029,-3.026 V 3.028 C 19.99,1.811 19.164,0 16.986,0 h -5.027 v 1.99 h 5.027 c 0.839,0 0.992,0.681 1.01,1.057 v 10.904 c -0.017,0.376 -0.171,1.059 -1.01,1.059 z"
         inkscape:connector-curvature="0"
         style="fill:#c5c5c5" />
    </g>
    <g
       id="g239"
       transform="matrix(0.26458333,0,0,0.26458333,-86.351825,317.53324)"
       style="fill:#c5c5c5">
      <path
         id="path235"
         d="M 21,8.5 12.125,0 v 6 h -6 v 5 h 6 v 6 z"
         inkscape:connector-curvature="0"
         style="fill:#c5c5c5" />
      <path
         id="path237"
         d="M 3.106,13.952 V 3.048 C 3.124,2.672 3.277,1.991 4.116,1.991 H 9.143 V 0 H 4.116 C 1.938,0 1.112,1.81 1.087,3.027 V 13.973 C 1.112,15.189 1.938,17 4.116,17 H 9.143 V 15.01 H 4.116 c -0.839,0 -0.992,-0.683 -1.01,-1.058 z"
         inkscape:connector-curvature="0"
         style="fill:#c5c5c5" />
    </g>
    <path
       id="path252"
       d="m -113.95763,300.10795 h -0.24897 c -1.09247,-0.12911 -1.89363,-0.63711 -2.47624,-1.28693 -0.58473,-0.65114 -1.04616,-1.48934 -1.13612,-2.61752 v -0.30269 c 0.0206,-0.20478 0.12144,-0.34501 0.23759,-0.46487 0.14526,-0.14843 0.36354,-0.33946 0.56251,-0.34607 0.14658,-0.005 0.39687,0.10054 0.49715,0.23786 0.0871,0.118 0.13335,0.35427 0.17357,0.52996 0.0408,0.17753 0.13361,0.43471 0.10795,0.60563 -0.0392,0.26643 -0.39344,0.37941 -0.49715,0.57309 0.34581,0.82946 0.91096,1.43906 1.66502,1.86028 0.18918,-0.10372 0.35613,-0.41592 0.61701,-0.42201 0.095,-0.002 0.21643,0.0471 0.31326,0.0757 0.10637,0.032 0.19844,0.0728 0.2921,0.10795 0.1577,0.0593 0.43604,0.13785 0.53023,0.27014 0.0966,0.13573 0.15081,0.35878 0.12964,0.49715 -0.0434,0.27543 -0.49715,0.58129 -0.76755,0.68236 z"
       inkscape:connector-curvature="0"
       style="fill:#b7bfc8;stroke-width:0.26458332" />
    <path
       id="path263"
       d="m -98.871901,269.58661 -0.552715,0.55536 4.706673,4.73154 -4.721754,4.74636 0.552714,0.55537 5.274469,-5.30173 z"
       inkscape:connector-curvature="0"
       style="fill:#ffffff;stroke-width:0.26458332" />
    <path
       id="path274"
       d="m -14.98744,261.42449 -1.457325,-1.45759 a 0.13395549,0.13395549 0 1 0 -0.189442,0.18944 l 1.362604,1.36287 -1.362868,1.3626 a 0.13414375,0.13414375 0 0 0 0.189441,0.18971 l 1.45759,-1.45759 a 0.13335,0.13335 0 0 0 0,-0.18944 z"
       inkscape:connector-curvature="0"
       style="fill:#c1c6ce;stroke-width:0.26458332" />
    <path
       id="path285"
       d="m -61.513798,267.41081 -1.455208,2.64583 h 2.910417 z"
       inkscape:connector-curvature="0"
       style="fill:#ee3643;stroke-width:0.26458332;fill-opacity:1" />
    <path
       id="path296"
       d="m -61.299503,219.58662 c -0.567267,-0.19447 -1.126067,-0.4408 -1.377686,-0.63235 -0.173831,-0.13256 -0.203729,-0.4281 -0.136789,-0.63897 0.295804,-0.23892 0.493183,-0.65538 0.493183,-1.13189 0,-0.74269 -0.47625,-1.34488 -1.063889,-1.34488 -0.58764,0 -1.06389,0.60219 -1.06389,1.34488 0,0.47651 0.197379,0.8927 0.492919,1.13162 0.06694,0.21114 0.03731,0.50668 -0.13679,0.63924 -0.251354,0.19155 -0.810419,0.43762 -1.377685,0.63235 -0.567267,0.19473 -0.560388,1.01441 -0.560388,1.01441 h 5.291667 c 0,0 0.0066,-0.81994 -0.560652,-1.01441 z"
       inkscape:connector-curvature="0"
       style="fill:#c5c5c5;stroke-width:0.26458332" />
    <path
       id="path307"
       d="m -132.58015,233.71389 c 0.25294,-0.0817 0.57679,0.53975 0.92154,0.77761 0.25877,0.18019 0.45694,0.14129 0.45694,0.14129 l 0.9189,-0.0132 c 0,0 0.48022,-0.0296 0.2532,-0.41116 -0.0188,-0.0317 -0.13308,-0.28284 -0.68394,-0.79957 -0.576,-0.54054 -0.49795,-0.45297 0.19552,-1.38748 0.42254,-0.56964 0.59161,-0.91757 0.53869,-1.06574 -0.0508,-0.14261 -0.36115,-0.10557 -0.36115,-0.10557 l -1.03532,0.007 c -0.1008,2.6e-4 -0.18626,0.0315 -0.22516,0.13626 -7.9e-4,0.001 -0.1643,0.44079 -0.38232,0.81465 -0.46064,0.79084 -0.64452,0.83291 -0.72072,0.78343 -0.17489,-0.11456 -0.13071,-0.45958 -0.13071,-0.70485 0,-0.7665 0.1143,-1.08611 -0.22384,-1.16866 -0.11297,-0.0275 -0.19552,-0.0455 -0.48365,-0.0482 -0.3683,-0.006 -0.68104,0 -0.85831,0.0871 -0.11774,0.059 -0.20797,0.18838 -0.1532,0.19579 0.0688,0.009 0.22305,0.0423 0.3056,0.15505 0.1061,0.14605 0.10292,0.47334 0.10292,0.47334 0,0 0.0606,0.90249 -0.14287,1.01441 -0.1397,0.0767 -0.33073,-0.0799 -0.74163,-0.79798 -0.20982,-0.36724 -0.3683,-0.77312 -0.3683,-0.77312 0,0 -0.0307,-0.0754 -0.0862,-0.11668 -0.0662,-0.0489 -0.15875,-0.0646 -0.15875,-0.0646 l -0.98266,0.006 c 0,0 -0.14764,0.004 -0.20188,0.0693 -0.0482,0.0577 -0.004,0.17674 -0.004,0.17674 0,0 0.76967,1.8206 1.64121,2.73764 0.79904,0.84191 1.70709,0.78608 1.70709,0.78608 h 0.41143 c 0,0 0.12409,-0.0143 0.18759,-0.0825 0.0593,-0.0635 0.0566,-0.18283 0.0566,-0.18283 0,0 -0.008,-0.55801 0.24738,-0.64003 z"
       inkscape:connector-curvature="0"
       style="fill:#ffffff;stroke-width:0.26458332" />
    <path
       id="path318"
       d="m -81.826282,265.68295 c 1.240102,0 2.248959,1.00886 2.248959,2.24896 0,1.2401 -1.008857,2.24896 -2.248959,2.24896 -1.240102,0 -2.248958,-1.00886 -2.248958,-2.24896 0,-1.2401 1.008856,-2.24896 2.248958,-2.24896 m 0,-1.05833 c -1.826418,0 -3.307291,1.48087 -3.307291,3.30729 0,1.82642 1.480873,3.30729 3.307291,3.30729 1.826419,0 3.307292,-1.48087 3.307292,-3.30729 0,-1.82642 -1.480873,-3.30729 -3.307292,-3.30729 z"
       inkscape:connector-curvature="0"
       style="fill:#c5c5c5;stroke-width:0.26458332" />
    <g
       id="g343"
       transform="matrix(0.26458333,0,0,0.26458333,-126.56035,261.95193)">
      <path
         id="path329"
         d="M 12.5,4 C 17.187,4 21,7.813 21,12.5 21,17.187 17.187,21 12.5,21 7.813,21 4,17.187 4,12.5 4,7.813 7.813,4 12.5,4 m 0,-4 C 5.597,0 0,5.597 0,12.5 0,19.403 5.597,25 12.5,25 19.403,25 25,19.403 25,12.5 25,5.597 19.403,0 12.5,0 Z"
         inkscape:connector-curvature="0"
         style="fill:#c5c5c5" />
      <circle
         id="circle331"
         r="4.5"
         cy="12.5"
         cx="12.5"
         style="fill:#c5c5c5" />
    </g>
    <path
       id="path345"
       d="M -8.3466289,230.03337 H -39.734679 c -0.436562,0 -0.79375,0.35719 -0.79375,0.79375 v 8.46667 c 0,0.43656 0.357188,0.79375 0.79375,0.79375 h 31.3880501 l 5.12445,-5.02709 z"
       inkscape:connector-curvature="0"
       style="fill:#ee3643;stroke-width:0.26458332" />
    <path
       id="path356"
       d="m -46.970441,250.45128 c 0.143404,0 0.264583,0.12118 0.264583,0.26458 v 4.49792 c 0,0.1434 -0.121179,0.26458 -0.264583,0.26458 h -4.497917 c -0.143404,0 -0.264583,-0.12118 -0.264583,-0.26458 v -4.49792 c 0,-0.1434 0.121179,-0.26458 0.264583,-0.26458 h 4.497917 m 0,-0.52917 h -4.497917 c -0.436562,0 -0.79375,0.35719 -0.79375,0.79375 v 4.49792 c 0,0.43656 0.357188,0.79375 0.79375,0.79375 h 4.497917 c 0.436562,0 0.79375,-0.35719 0.79375,-0.79375 v -4.49792 c 0,-0.43656 -0.357188,-0.79375 -0.79375,-0.79375 z"
       inkscape:connector-curvature="0"
       style="fill:#c5c5c5;stroke-width:0.26458332" />
    <g
       id="g381"
       transform="matrix(0.26458333,0,0,0.26458333,-32.101851,212.77164)">
      <path
         id="path367"
         d="M 7.285,7.486 4.456,10.315 12.239,18.098 26.171,4.166 23.343,1.337 12.239,12.439 Z"
         inkscape:connector-curvature="0"
         style="fill:#c5c5c5" />
      <path
         id="path369"
         d="m 21,20 c 0,0.542 -0.458,1 -1,1 H 3 C 2.458,21 2,20.542 2,20 V 3 C 2,2.458 2.458,2 3,2 H 19.908 L 21.493,0.415 A 2.96,2.96 0 0 0 20,0 H 3 C 1.35,0 0,1.35 0,3 v 17 c 0,1.65 1.35,3 3,3 h 17 c 1.65,0 3,-1.35 3,-3 v -9.829 l -2,2 z"
         inkscape:connector-curvature="0"
         style="fill:#c5c5c5" />
    </g>
    <g
       id="g400"
       transform="matrix(0.26458333,0,0,0.26458333,-3.2221789,232.41462)">
      <path
         id="path383"
         d="M 10,20 C 4.477,20 0,15.522 0,10 v 2 c 0,5.522 4.477,10 10,10 5.522,0 10,-4.478 10,-10 v -2 c 0,5.522 -4.478,10 -10,10 z"
         inkscape:connector-curvature="0"
         style="opacity:0.3;fill:#ababab" />
      <circle
         id="circle385"
         r="10"
         cy="10"
         cx="10"
         style="fill:#ffffff" />
      <circle
         id="circle387"
         r="2"
         cy="10"
         cx="10"
         style="fill:#ababab" />
    </g>
  </g>
</svg>
